 <svg
  viewBox="0 0 320 73"
  fill="none"
  xmlns="http://www.w3.org/2000/svg"
>
  <g clip-path="url(#clip0)">
    <path
      fill-rule="evenodd"
      clip-rule="evenodd"
      d="M72.9692 0V72.9969H0V0H72.9692ZM65.3683 7.60384H7.60096V65.393H65.3683V7.60384Z"
      fill="#141414"
    />
    <path
      fill-rule="evenodd"
      clip-rule="evenodd"
      d="M36.4846 7.55141C52.4655 7.55141 65.4207 20.5114 65.4207 36.4984C65.4207 52.4854 52.4655 65.4455 36.4846 65.4455C20.5037 65.4455 7.54854 52.4854 7.54854 36.4984C7.54854 20.5114 20.5037 7.55141 36.4846 7.55141ZM36.4846 16.6926C25.5503 16.6926 16.6862 25.56 16.6862 36.4984C16.6862 47.4369 25.5503 56.3043 36.4846 56.3043C47.4189 56.3043 56.283 47.4369 56.283 36.4984C56.283 25.56 47.4189 16.6926 36.4846 16.6926Z"
      fill="#141414"
    />
    <path
      d="M127.73 38.7478V34.0482H112.936V23.4843H124.501V18.8249H112.936V9.9882H126.626V5.32883H92.0128V9.9882H107.787V34.0482H100.676V16.2141H95.609V34.0482H90.5825V38.7478H127.73ZM134.84 40.1536C143.504 36.0566 147.918 29.7905 150.124 23.0826C153.312 30.8349 158.052 36.6993 165.449 40.1135C166.226 38.7478 167.819 36.6189 169.045 35.6148C161.403 32.5621 156.459 26.2558 153.761 18.4233H168.146V13.4827H152.086C152.495 9.7472 152.535 6.05183 152.576 2.75814H147.264C147.223 6.05183 147.264 9.70703 146.855 13.4827H131.98V18.4233H146.038C144.444 25.332 140.562 31.9997 131.203 36.0968C132.634 37.1009 134.064 38.8281 134.84 40.1536ZM181.836 26.2157V25.1312H208.195V21.5161H194.75V19.7488H205.416V16.6559H194.75V15.0492H205.375V11.9564H194.75V10.2694H207.214V6.61417H195.731C195.281 5.32883 194.505 3.76231 193.769 2.51714L189.397 3.72215C189.846 4.60582 190.296 5.61 190.663 6.61417H184.043C184.738 5.61 185.392 4.60582 186.005 3.60165L181.06 2.6778C179.221 6.13217 175.911 10.2694 171.375 13.4426C172.478 14.0451 174.031 15.5714 174.807 16.5756C175.543 15.9731 176.279 15.3706 177.014 14.7279V26.2157H181.836ZM190.091 11.9564H181.836V10.2694H190.091V11.9564ZM190.091 16.6559H181.836V15.0492H190.091V16.6559ZM190.091 21.5161H181.836V19.7488H190.091V21.5161ZM193.197 40.1536V33.1646C197.243 36.0164 202.433 38.4264 207.214 39.752C207.827 38.6273 209.217 36.8599 210.238 35.9361C205.947 35.0123 201.289 33.3654 197.651 31.3571H209.217V27.5412H193.197V25.4927H188.375V27.5412H172.478V31.3571H184.207C180.406 33.3654 175.584 35.0926 171.129 36.0164C172.151 37.0206 173.541 38.788 174.276 39.9528C179.057 38.6273 184.329 36.2173 188.375 33.3654V40.1536H193.197ZM219.351 40.2741V38.8683H243.83V40.2741H249.102V4.24432H214.325V40.2741H219.351ZM243.83 34.5704H219.351V8.62252H243.83V34.5704ZM235.698 32.5621C237.128 31.8391 237.455 30.7545 237.455 28.5855V18.3831H242.359V14.1656H237.455V9.82753H232.796V14.1656H221.109V18.3831H230.916C227.811 22.0383 223.724 25.091 220.046 27.019C221.109 27.8625 222.457 29.3487 223.07 30.2324C226.217 28.5855 229.772 26.0952 232.796 23.1228V28.5454C232.796 29.0274 232.633 29.1479 232.102 29.1479C231.57 29.188 229.977 29.188 228.464 29.1077C229.077 30.2725 229.813 32.1202 230.017 33.3654C232.51 33.3654 234.349 33.2851 235.698 32.5621Z"
      fill="#141414"
    />
    <path
      d="M101.113 67.9626C102.111 67.9626 103.01 67.8838 103.812 67.7262C104.614 67.5686 105.352 67.3368 106.027 67.0308C106.701 66.7249 107.322 66.3587 107.889 65.9322C108.456 65.5057 109.004 65.0236 109.532 64.4859L106.657 61.7323C105.856 62.437 105.049 62.9932 104.237 63.4012C103.426 63.8091 102.433 64.0131 101.26 64.0131C100.38 64.0131 99.5733 63.8508 98.8399 63.5263C98.1066 63.2018 97.4808 62.7614 96.9626 62.2052C96.4443 61.6489 96.0386 60.9999 95.7452 60.2582C95.4519 59.5165 95.3052 58.7285 95.3052 57.8941V57.8384C95.3052 57.004 95.4519 56.2206 95.7452 55.4882C96.0386 54.7558 96.4492 54.1114 96.9772 53.5551C97.5052 52.9989 98.1359 52.5631 98.8693 52.2479C99.6026 51.9327 100.399 51.7751 101.26 51.7751C102.296 51.7751 103.23 51.9698 104.061 52.3592C104.892 52.7485 105.709 53.2863 106.511 53.9723L109.385 50.8294C108.916 50.3844 108.408 49.9765 107.86 49.6056C107.312 49.2348 106.716 48.9195 106.071 48.6599C105.425 48.4003 104.707 48.1964 103.915 48.048C103.123 47.8997 102.248 47.8255 101.289 47.8255C99.7053 47.8255 98.2581 48.0898 96.9479 48.6182C95.6377 49.1467 94.5132 49.8698 93.5745 50.7877C92.6358 51.7055 91.9025 52.7717 91.3745 53.9862C90.8465 55.2008 90.5825 56.5034 90.5825 57.8941V57.9497C90.5825 59.3404 90.8465 60.6476 91.3745 61.8714C91.9025 63.0952 92.6358 64.1568 93.5745 65.0561C94.5132 65.9554 95.6279 66.6646 96.9186 67.1838C98.2093 67.703 99.6075 67.9626 101.113 67.9626ZM117.657 67.6288V61.788H121.09C122.243 61.788 123.324 61.6443 124.331 61.3569C125.338 61.0695 126.218 60.6383 126.971 60.0635C127.724 59.4887 128.315 58.7748 128.746 57.9219C129.176 57.0689 129.391 56.0769 129.391 54.9458V54.8902C129.391 53.8889 129.21 52.9757 128.848 52.1505C128.487 51.3254 127.968 50.6162 127.294 50.0228C126.619 49.4295 125.798 48.9705 124.83 48.646C123.862 48.3215 122.762 48.1593 121.53 48.1593H113.14V67.6288H117.657ZM121.236 57.9775H117.657V52.0254H121.148C122.282 52.0254 123.177 52.2757 123.832 52.7764C124.487 53.277 124.815 54.0094 124.815 54.9736V55.0293C124.815 55.8637 124.502 56.5636 123.876 57.1292C123.25 57.6947 122.37 57.9775 121.236 57.9775ZM151.421 67.9626C153.298 67.9626 154.965 67.6613 156.422 67.0587C157.879 66.456 159.135 65.7282 160.191 64.8753V56.4199H151.274V60.1192H155.821V62.9005C154.667 63.6793 153.249 64.0687 151.567 64.0687C150.648 64.0687 149.812 63.9157 149.059 63.6098C148.306 63.3038 147.651 62.8727 147.094 62.3164C146.537 61.7602 146.106 61.1065 145.803 60.3556C145.5 59.6046 145.349 58.7841 145.349 57.8941V57.8384C145.349 57.004 145.5 56.2206 145.803 55.4882C146.106 54.7558 146.527 54.116 147.065 53.569C147.602 53.022 148.228 52.5863 148.942 52.2618C149.656 51.9373 150.423 51.7751 151.245 51.7751C151.831 51.7751 152.369 51.8214 152.858 51.9141C153.347 52.0068 153.802 52.1366 154.222 52.3035C154.642 52.4704 155.048 52.6744 155.439 52.9154C155.83 53.1565 156.222 53.4346 156.613 53.7498L159.458 50.4956C158.93 50.0692 158.382 49.689 157.815 49.3553C157.248 49.0215 156.642 48.7434 155.997 48.5209C155.351 48.2984 154.652 48.1268 153.899 48.0063C153.146 47.8858 152.31 47.8255 151.391 47.8255C149.827 47.8255 148.389 48.0898 147.079 48.6182C145.769 49.1467 144.635 49.8698 143.676 50.7877C142.718 51.7055 141.97 52.7717 141.432 53.9862C140.895 55.2008 140.626 56.5034 140.626 57.8941V57.9497C140.626 59.396 140.89 60.7311 141.418 61.9549C141.946 63.1787 142.684 64.2356 143.632 65.1256C144.581 66.0156 145.715 66.711 147.035 67.2116C148.355 67.7123 149.817 67.9626 151.421 67.9626ZM169.05 67.6288V61.3986H172.6L177 67.6288H182.28L177.264 60.6754C178.574 60.2119 179.635 59.4841 180.446 58.4921C181.258 57.5 181.664 56.216 181.664 54.6399V54.5842C181.664 52.73 181.077 51.2466 179.904 50.1341C178.515 48.8176 176.52 48.1593 173.92 48.1593H164.533V67.6288H169.05ZM173.626 57.6159H169.05V52.0254H173.538C174.653 52.0254 175.523 52.2572 176.149 52.7207C176.775 53.1843 177.088 53.8796 177.088 54.8068V54.8624C177.088 55.6968 176.789 56.3643 176.193 56.865C175.596 57.3656 174.741 57.6159 173.626 57.6159ZM195.714 67.9626C197.299 67.9626 198.76 67.6984 200.1 67.1699C201.439 66.6415 202.593 65.9183 203.561 65.0004C204.529 64.0826 205.287 63.0164 205.835 61.8019C206.382 60.5874 206.656 59.2847 206.656 57.8941V57.8384C206.656 56.4478 206.387 55.1452 205.849 53.9306C205.311 52.7161 204.559 51.6592 203.591 50.7599C202.623 49.8606 201.474 49.1467 200.144 48.6182C198.814 48.0898 197.357 47.8255 195.773 47.8255C194.189 47.8255 192.727 48.0898 191.388 48.6182C190.048 49.1467 188.894 49.8698 187.926 50.7877C186.958 51.7055 186.201 52.7717 185.653 53.9862C185.105 55.2008 184.832 56.5034 184.832 57.8941V57.9497C184.832 59.3404 185.101 60.643 185.638 61.8575C186.176 63.072 186.929 64.129 187.897 65.0283C188.865 65.9276 190.014 66.6415 191.344 67.1699C192.674 67.6984 194.13 67.9626 195.714 67.9626ZM195.773 64.0131C194.854 64.0131 194.018 63.8508 193.265 63.5263C192.512 63.2018 191.857 62.7614 191.3 62.2052C190.742 61.6489 190.312 60.9999 190.009 60.2582C189.706 59.5165 189.554 58.7285 189.554 57.8941V57.8384C189.554 57.004 189.706 56.2206 190.009 55.4882C190.312 54.7558 190.733 54.1114 191.27 53.5551C191.808 52.9989 192.454 52.5631 193.206 52.2479C193.959 51.9327 194.795 51.7751 195.714 51.7751C196.614 51.7751 197.445 51.9373 198.208 52.2618C198.971 52.5863 199.631 53.0267 200.188 53.583C200.745 54.1392 201.175 54.7882 201.479 55.5299C201.782 56.2716 201.933 57.0597 201.933 57.8941V57.9497C201.933 58.7841 201.782 59.5675 201.479 60.2999C201.175 61.0324 200.755 61.6767 200.217 62.233C199.679 62.7893 199.029 63.225 198.266 63.5402C197.504 63.8554 196.673 64.0131 195.773 64.0131ZM219.24 67.9348C220.609 67.9348 221.851 67.754 222.965 67.3924C224.08 67.0308 225.029 66.4838 225.811 65.7514C226.593 65.019 227.194 64.1058 227.615 63.0118C228.035 61.9178 228.246 60.6291 228.246 59.1457V48.1593H223.728V59.3126C223.728 60.8701 223.337 62.0383 222.555 62.8171C221.773 63.5959 220.687 63.9852 219.299 63.9852C217.91 63.9852 216.825 63.582 216.043 62.7754C215.26 61.9688 214.869 60.7681 214.869 59.1735V48.1593H210.352V59.2847C210.352 62.1588 211.144 64.319 212.728 65.7653C214.312 67.2116 216.483 67.9348 219.24 67.9348ZM237.368 67.6288V61.788H240.8C241.954 61.788 243.035 61.6443 244.042 61.3569C245.049 61.0695 245.929 60.6383 246.682 60.0635C247.435 59.4887 248.026 58.7748 248.456 57.9219C248.887 57.0689 249.102 56.0769 249.102 54.9458V54.8902C249.102 53.8889 248.921 52.9757 248.559 52.1505C248.197 51.3254 247.679 50.6162 247.004 50.0228C246.33 49.4295 245.508 48.9705 244.54 48.646C243.572 48.3215 242.472 48.1593 241.24 48.1593H232.851V67.6288H237.368ZM240.947 57.9775H237.368V52.0254H240.859C241.993 52.0254 242.888 52.2757 243.543 52.7764C244.198 53.277 244.526 54.0094 244.526 54.9736V55.0293C244.526 55.8637 244.213 56.5636 243.587 57.1292C242.961 57.6947 242.081 57.9775 240.947 57.9775Z"
      fill="#141414"
    />
  </g>
  <defs>
    <clipPath id="clip0">
      <rect width="249.102" height="72.9969" fill="white" />
    </clipPath>
  </defs>
</svg>